<mxfile host="app.diagrams.net" modified="2023-03-30T15:02:22.150Z" agent="Mozilla/5.0 (Windows NT 10.0; Win64; x64) AppleWebKit/537.36 (KHTML, like Gecko) Chrome/111.0.0.0 Safari/537.36" etag="xucPU8k-LCM9QeXqzyEu" version="21.1.2" type="github">
  <diagram name="Página-1" id="Ayukn_wWBw63X8BAplip">
    <mxGraphModel dx="794" dy="1909" grid="1" gridSize="10" guides="1" tooltips="1" connect="1" arrows="1" fold="1" page="1" pageScale="1" pageWidth="827" pageHeight="1169" math="0" shadow="0">
      <root>
        <mxCell id="0" />
        <mxCell id="1" parent="0" />
        <mxCell id="fzJ5CWj0qprJrNkP0WYs-2" value="Vertical Container" style="swimlane;whiteSpace=wrap;html=1;" vertex="1" parent="1">
          <mxGeometry x="510" y="70" width="290" height="610" as="geometry" />
        </mxCell>
        <mxCell id="fzJ5CWj0qprJrNkP0WYs-3" value="Pesquisar" style="rounded=1;whiteSpace=wrap;html=1;" vertex="1" parent="fzJ5CWj0qprJrNkP0WYs-2">
          <mxGeometry x="10" y="30" width="120" height="20" as="geometry" />
        </mxCell>
        <mxCell id="fzJ5CWj0qprJrNkP0WYs-4" value="" style="rounded=1;whiteSpace=wrap;html=1;" vertex="1" parent="fzJ5CWj0qprJrNkP0WYs-2">
          <mxGeometry x="10" y="180" width="120" height="90" as="geometry" />
        </mxCell>
        <mxCell id="fzJ5CWj0qprJrNkP0WYs-5" value="" style="rounded=1;whiteSpace=wrap;html=1;" vertex="1" parent="fzJ5CWj0qprJrNkP0WYs-2">
          <mxGeometry x="160" y="180" width="120" height="90" as="geometry" />
        </mxCell>
        <mxCell id="fzJ5CWj0qprJrNkP0WYs-7" value="" style="rounded=1;whiteSpace=wrap;html=1;" vertex="1" parent="fzJ5CWj0qprJrNkP0WYs-2">
          <mxGeometry x="160" y="290" width="120" height="80" as="geometry" />
        </mxCell>
        <mxCell id="fzJ5CWj0qprJrNkP0WYs-9" value="" style="endArrow=none;html=1;rounded=0;" edge="1" parent="fzJ5CWj0qprJrNkP0WYs-2">
          <mxGeometry width="50" height="50" relative="1" as="geometry">
            <mxPoint y="560" as="sourcePoint" />
            <mxPoint x="290" y="560" as="targetPoint" />
            <Array as="points" />
          </mxGeometry>
        </mxCell>
        <mxCell id="fzJ5CWj0qprJrNkP0WYs-10" value="" style="shape=singleArrow;whiteSpace=wrap;html=1;arrowWidth=0.4;arrowSize=0.4;direction=north;" vertex="1" parent="fzJ5CWj0qprJrNkP0WYs-2">
          <mxGeometry x="130" y="570" width="45" height="30" as="geometry" />
        </mxCell>
        <mxCell id="fzJ5CWj0qprJrNkP0WYs-11" value="" style="triangle;whiteSpace=wrap;html=1;" vertex="1" parent="fzJ5CWj0qprJrNkP0WYs-2">
          <mxGeometry x="231" y="570" width="30" height="35" as="geometry" />
        </mxCell>
        <mxCell id="fzJ5CWj0qprJrNkP0WYs-12" value="" style="whiteSpace=wrap;html=1;" vertex="1" parent="fzJ5CWj0qprJrNkP0WYs-2">
          <mxGeometry x="31" y="570" width="39" height="30" as="geometry" />
        </mxCell>
        <mxCell id="fzJ5CWj0qprJrNkP0WYs-8" value="" style="whiteSpace=wrap;html=1;" vertex="1" parent="fzJ5CWj0qprJrNkP0WYs-2">
          <mxGeometry x="10" y="60" width="270" height="110" as="geometry" />
        </mxCell>
        <mxCell id="fzJ5CWj0qprJrNkP0WYs-6" value="" style="rounded=1;whiteSpace=wrap;html=1;" vertex="1" parent="fzJ5CWj0qprJrNkP0WYs-2">
          <mxGeometry x="10" y="290" width="120" height="80" as="geometry" />
        </mxCell>
        <mxCell id="fzJ5CWj0qprJrNkP0WYs-15" style="edgeStyle=orthogonalEdgeStyle;rounded=0;orthogonalLoop=1;jettySize=auto;html=1;entryX=0.5;entryY=0;entryDx=0;entryDy=0;" edge="1" parent="1" source="fzJ5CWj0qprJrNkP0WYs-13" target="fzJ5CWj0qprJrNkP0WYs-14">
          <mxGeometry relative="1" as="geometry">
            <Array as="points">
              <mxPoint x="240" y="-40" />
            </Array>
          </mxGeometry>
        </mxCell>
        <mxCell id="fzJ5CWj0qprJrNkP0WYs-20" style="edgeStyle=orthogonalEdgeStyle;rounded=0;orthogonalLoop=1;jettySize=auto;html=1;" edge="1" parent="1" source="fzJ5CWj0qprJrNkP0WYs-13">
          <mxGeometry relative="1" as="geometry">
            <mxPoint x="430" y="60" as="targetPoint" />
          </mxGeometry>
        </mxCell>
        <mxCell id="fzJ5CWj0qprJrNkP0WYs-13" value="inicio" style="ellipse;whiteSpace=wrap;html=1;" vertex="1" parent="1">
          <mxGeometry x="270" y="-80" width="120" height="80" as="geometry" />
        </mxCell>
        <mxCell id="fzJ5CWj0qprJrNkP0WYs-17" style="edgeStyle=orthogonalEdgeStyle;rounded=0;orthogonalLoop=1;jettySize=auto;html=1;" edge="1" parent="1" source="fzJ5CWj0qprJrNkP0WYs-14">
          <mxGeometry relative="1" as="geometry">
            <mxPoint x="240" y="190" as="targetPoint" />
          </mxGeometry>
        </mxCell>
        <mxCell id="fzJ5CWj0qprJrNkP0WYs-14" value="Digite seu email" style="shape=hexagon;perimeter=hexagonPerimeter2;whiteSpace=wrap;html=1;fixedSize=1;" vertex="1" parent="1">
          <mxGeometry x="180" y="60" width="120" height="80" as="geometry" />
        </mxCell>
        <mxCell id="fzJ5CWj0qprJrNkP0WYs-28" style="edgeStyle=orthogonalEdgeStyle;rounded=0;orthogonalLoop=1;jettySize=auto;html=1;" edge="1" parent="1" source="fzJ5CWj0qprJrNkP0WYs-16">
          <mxGeometry relative="1" as="geometry">
            <mxPoint x="300" y="290" as="targetPoint" />
          </mxGeometry>
        </mxCell>
        <mxCell id="fzJ5CWj0qprJrNkP0WYs-16" value="email" style="html=1;strokeWidth=2;shape=manualInput;whiteSpace=wrap;rounded=1;size=26;arcSize=11;" vertex="1" parent="1">
          <mxGeometry x="190" y="200" width="110" height="60" as="geometry" />
        </mxCell>
        <mxCell id="fzJ5CWj0qprJrNkP0WYs-25" style="edgeStyle=orthogonalEdgeStyle;rounded=0;orthogonalLoop=1;jettySize=auto;html=1;" edge="1" parent="1" source="fzJ5CWj0qprJrNkP0WYs-18">
          <mxGeometry relative="1" as="geometry">
            <mxPoint x="414" y="190" as="targetPoint" />
          </mxGeometry>
        </mxCell>
        <mxCell id="fzJ5CWj0qprJrNkP0WYs-18" value="Digite sua Senha" style="strokeWidth=2;html=1;shape=mxgraph.flowchart.display;whiteSpace=wrap;" vertex="1" parent="1">
          <mxGeometry x="359" y="80" width="110" height="70" as="geometry" />
        </mxCell>
        <mxCell id="fzJ5CWj0qprJrNkP0WYs-27" style="edgeStyle=orthogonalEdgeStyle;rounded=0;orthogonalLoop=1;jettySize=auto;html=1;exitX=0.5;exitY=1;exitDx=0;exitDy=0;" edge="1" parent="1" source="fzJ5CWj0qprJrNkP0WYs-19">
          <mxGeometry relative="1" as="geometry">
            <mxPoint x="350" y="290" as="targetPoint" />
          </mxGeometry>
        </mxCell>
        <mxCell id="fzJ5CWj0qprJrNkP0WYs-19" value="senha" style="html=1;strokeWidth=2;shape=manualInput;whiteSpace=wrap;rounded=1;size=26;arcSize=11;" vertex="1" parent="1">
          <mxGeometry x="340" y="200" width="120" height="60" as="geometry" />
        </mxCell>
        <mxCell id="fzJ5CWj0qprJrNkP0WYs-30" style="edgeStyle=orthogonalEdgeStyle;rounded=0;orthogonalLoop=1;jettySize=auto;html=1;" edge="1" parent="1" source="fzJ5CWj0qprJrNkP0WYs-26">
          <mxGeometry relative="1" as="geometry">
            <mxPoint x="270" y="310" as="targetPoint" />
            <Array as="points">
              <mxPoint x="390" y="310" />
              <mxPoint x="270" y="310" />
            </Array>
          </mxGeometry>
        </mxCell>
        <mxCell id="fzJ5CWj0qprJrNkP0WYs-38" style="edgeStyle=orthogonalEdgeStyle;rounded=0;orthogonalLoop=1;jettySize=auto;html=1;" edge="1" parent="1" source="fzJ5CWj0qprJrNkP0WYs-26">
          <mxGeometry relative="1" as="geometry">
            <mxPoint x="330" y="490" as="targetPoint" />
            <Array as="points">
              <mxPoint x="400" y="431" />
              <mxPoint x="330" y="431" />
              <mxPoint x="330" y="490" />
            </Array>
          </mxGeometry>
        </mxCell>
        <mxCell id="fzJ5CWj0qprJrNkP0WYs-26" value="verificação" style="rounded=1;whiteSpace=wrap;html=1;absoluteArcSize=1;arcSize=14;strokeWidth=2;" vertex="1" parent="1">
          <mxGeometry x="350" y="322.5" width="100" height="50" as="geometry" />
        </mxCell>
        <mxCell id="fzJ5CWj0qprJrNkP0WYs-33" style="edgeStyle=orthogonalEdgeStyle;rounded=0;orthogonalLoop=1;jettySize=auto;html=1;" edge="1" parent="1" source="fzJ5CWj0qprJrNkP0WYs-29">
          <mxGeometry relative="1" as="geometry">
            <mxPoint x="340" y="385" as="targetPoint" />
            <Array as="points">
              <mxPoint x="230" y="385" />
              <mxPoint x="250" y="385" />
            </Array>
          </mxGeometry>
        </mxCell>
        <mxCell id="fzJ5CWj0qprJrNkP0WYs-29" value="Banco de&lt;br&gt;dados" style="strokeWidth=2;html=1;shape=mxgraph.flowchart.database;whiteSpace=wrap;" vertex="1" parent="1">
          <mxGeometry x="210" y="315" width="60" height="60" as="geometry" />
        </mxCell>
        <mxCell id="fzJ5CWj0qprJrNkP0WYs-35" value="troca de&lt;br&gt;info" style="strokeWidth=2;html=1;shape=mxgraph.flowchart.decision;whiteSpace=wrap;" vertex="1" parent="1">
          <mxGeometry x="280" y="312.5" width="60" height="60" as="geometry" />
        </mxCell>
        <mxCell id="fzJ5CWj0qprJrNkP0WYs-39" style="edgeStyle=orthogonalEdgeStyle;rounded=0;orthogonalLoop=1;jettySize=auto;html=1;" edge="1" parent="1" source="fzJ5CWj0qprJrNkP0WYs-36">
          <mxGeometry relative="1" as="geometry">
            <mxPoint x="280" y="620" as="targetPoint" />
          </mxGeometry>
        </mxCell>
        <mxCell id="fzJ5CWj0qprJrNkP0WYs-36" value="achou" style="strokeWidth=2;html=1;shape=mxgraph.flowchart.decision;whiteSpace=wrap;" vertex="1" parent="1">
          <mxGeometry x="240" y="490" width="80" height="70" as="geometry" />
        </mxCell>
        <mxCell id="fzJ5CWj0qprJrNkP0WYs-40" style="edgeStyle=orthogonalEdgeStyle;rounded=0;orthogonalLoop=1;jettySize=auto;html=1;" edge="1" parent="1" source="fzJ5CWj0qprJrNkP0WYs-37">
          <mxGeometry relative="1" as="geometry">
            <mxPoint x="380" y="620" as="targetPoint" />
          </mxGeometry>
        </mxCell>
        <mxCell id="fzJ5CWj0qprJrNkP0WYs-37" value="nao achou" style="strokeWidth=2;html=1;shape=mxgraph.flowchart.decision;whiteSpace=wrap;" vertex="1" parent="1">
          <mxGeometry x="340" y="490" width="80" height="70" as="geometry" />
        </mxCell>
        <mxCell id="fzJ5CWj0qprJrNkP0WYs-41" value="carregar dados obtidos e logar" style="rounded=1;whiteSpace=wrap;html=1;" vertex="1" parent="1">
          <mxGeometry x="210" y="610" width="120" height="60" as="geometry" />
        </mxCell>
        <mxCell id="fzJ5CWj0qprJrNkP0WYs-42" value="usuario nao&lt;br&gt;localizado" style="rounded=1;whiteSpace=wrap;html=1;" vertex="1" parent="1">
          <mxGeometry x="340" y="610" width="120" height="60" as="geometry" />
        </mxCell>
      </root>
    </mxGraphModel>
  </diagram>
</mxfile>
